<svg width="137" height="28" viewBox="0 0 137 28" fill="none" xmlns="http://www.w3.org/2000/svg">
<g id="Group 8">
<path id="Vector" d="M14.2507 28C13.8572 28 13.5271 27.8507 13.2604 27.552C12.9938 27.2533 12.8609 26.8841 12.8618 26.4444C12.8618 26.0037 12.9952 25.634 13.2618 25.3353C13.5285 25.0367 13.8581 24.8878 14.2507 24.8889H22.584V3.11112H14.2507C13.8572 3.11112 13.5271 2.96178 13.2604 2.66312C12.9938 2.36445 12.8609 1.99526 12.8618 1.55556C12.8618 1.11482 12.9952 0.745116 13.2618 0.44645C13.5285 0.147783 13.8581 -0.00103165 14.2507 5.38255e-06H22.584C23.3479 5.38255e-06 24.0021 0.304894 24.5465 0.914672C25.091 1.52445 25.3627 2.2566 25.3618 3.11112V24.8889C25.3618 25.7444 25.0896 26.4771 24.5451 27.0869C24.0007 27.6967 23.347 28.001 22.584 28H14.2507ZM11.716 15.5556H1.75071C1.35719 15.5556 1.0271 15.4062 0.760432 15.1076C0.493766 14.8089 0.360895 14.4397 0.361821 14C0.361821 13.5593 0.495155 13.1896 0.761821 12.8909C1.02849 12.5922 1.35812 12.4434 1.75071 12.4444H11.716L9.11182 9.52778C8.85719 9.24259 8.72987 8.8926 8.72987 8.47778C8.72987 8.06297 8.85719 7.7 9.11182 7.38889C9.36645 7.07778 9.69052 6.91548 10.084 6.902C10.4776 6.88852 10.8132 7.03785 11.091 7.35L16.0563 12.9111C16.334 13.2222 16.4729 13.5852 16.4729 14C16.4729 14.4148 16.334 14.7778 16.0563 15.0889L11.091 20.65C10.8132 20.9611 10.4836 21.1104 10.1021 21.098C9.72061 21.0856 9.39052 20.9233 9.11182 20.6111C8.85719 20.3 8.73543 19.9303 8.74654 19.502C8.75765 19.0737 8.89098 18.7175 9.14654 18.4333L11.716 15.5556Z" fill="white"/>
<path id="Vector_2" d="M72.2727 0C69.2182 0 66.5622 1.41024 65 3.77355C63.4378 1.41024 60.7818 0 57.7273 0C55.4135 0.00275885 53.1952 0.945008 51.5591 2.62005C49.923 4.29509 49.0027 6.56613 49 8.935C49 13.2834 51.6473 17.8089 56.8691 22.3837C59.2619 24.4711 61.8466 26.3164 64.5869 27.8936C64.7139 27.9634 64.8558 28 65 28C65.1442 28 65.2861 27.9634 65.4131 27.8936C68.1534 26.3164 70.7381 24.4711 73.1309 22.3837C78.3527 17.8089 81 13.2834 81 8.935C80.9973 6.56613 80.077 4.29509 78.4409 2.62005C76.8048 0.945008 74.5865 0.00275885 72.2727 0ZM65 26.0768C62.6131 24.6665 50.7455 17.2326 50.7455 8.935C50.7474 7.03983 51.4836 5.22286 52.7925 3.88278C54.1014 2.54269 55.8762 1.78897 57.7273 1.787C60.6771 1.787 63.1542 3.39977 64.1927 5.99687C64.2585 6.16075 64.3703 6.30092 64.5141 6.39956C64.6578 6.4982 64.827 6.55087 65 6.55087C65.173 6.55087 65.3422 6.4982 65.4859 6.39956C65.6297 6.30092 65.7415 6.16075 65.8073 5.99687C66.8458 3.39977 69.3229 1.787 72.2727 1.787C74.1238 1.78897 75.8986 2.54269 77.2075 3.88278C78.5164 5.22286 79.2526 7.03983 79.2545 8.935C79.2545 17.2326 67.3869 24.6665 65 26.0768Z" fill="white"/>
<path id="Vector_3" d="M122.144 14.5586V22.3994C122.144 22.6965 122.024 22.9814 121.81 23.1914C121.595 23.4015 121.305 23.5195 121.002 23.5195C120.698 23.5195 120.408 23.4015 120.193 23.1914C119.979 22.9814 119.859 22.6965 119.859 22.3994V14.5586C119.859 14.2615 119.979 13.9766 120.193 13.7665C120.408 13.5564 120.698 13.4384 121.002 13.4384C121.305 13.4384 121.595 13.5564 121.81 13.7665C122.024 13.9766 122.144 14.2615 122.144 14.5586ZM136.981 11.4936L135.001 26.0566C134.928 26.5948 134.658 27.0886 134.241 27.446C133.824 27.8035 133.288 28.0004 132.734 28H109.269C108.715 28.0004 108.179 27.8035 107.762 27.446C107.345 27.0886 107.075 26.5948 107.002 26.0566L105.02 11.495C104.977 11.1784 105.003 10.8565 105.098 10.5507C105.192 10.245 105.352 9.96246 105.566 9.72219C105.781 9.48193 106.046 9.28943 106.342 9.15762C106.639 9.02581 106.961 8.95773 107.287 8.95795H112.483L120.144 0.37923C120.252 0.260042 120.384 0.164585 120.531 0.0992001C120.679 0.0338154 120.839 0 121.002 0C121.164 0 121.324 0.0338154 121.472 0.0992001C121.62 0.164585 121.751 0.260042 121.859 0.37923L129.52 8.95795H134.716C135.041 8.95816 135.363 9.0265 135.659 9.1584C135.956 9.2903 136.22 9.48272 136.434 9.72279C136.649 9.96285 136.808 10.245 136.902 10.5504C136.996 10.8558 137.023 11.1774 136.98 11.4936H136.981ZM115.52 8.95795H126.483L121.002 2.81829L115.52 8.95795ZM134.716 11.1982H107.287L109.269 25.7598H132.734L134.716 11.1982ZM127.407 14.4465L126.607 22.2874C126.591 22.4342 126.605 22.5826 126.648 22.7241C126.691 22.8656 126.762 22.9974 126.857 23.1119C126.952 23.2264 127.07 23.3214 127.202 23.3913C127.335 23.4613 127.48 23.5048 127.63 23.5195C127.669 23.5216 127.707 23.5216 127.746 23.5195C128.029 23.5192 128.302 23.4159 128.512 23.2296C128.721 23.0434 128.853 22.7875 128.881 22.5114L129.681 14.6706C129.712 14.375 129.621 14.0797 129.429 13.8497C129.237 13.6197 128.96 13.4737 128.659 13.444C128.357 13.4143 128.056 13.5033 127.821 13.6913C127.586 13.8793 127.438 14.151 127.407 14.4465ZM114.596 14.4465C114.566 14.151 114.417 13.8793 114.182 13.6913C113.947 13.5033 113.646 13.4143 113.344 13.444C113.043 13.4737 112.766 13.6197 112.574 13.8497C112.382 14.0797 112.291 14.375 112.322 14.6706L113.122 22.5114C113.15 22.7887 113.283 23.0456 113.494 23.232C113.705 23.4184 113.98 23.5209 114.264 23.5195C114.303 23.5216 114.342 23.5216 114.38 23.5195C114.529 23.5048 114.674 23.4614 114.807 23.3918C114.939 23.3222 115.056 23.2278 115.151 23.1139C115.246 23 115.317 22.8689 115.36 22.728C115.403 22.5872 115.418 22.4393 115.403 22.293L114.596 14.4465Z" fill="white"/>
</g>
</svg>
